<mxfile host="Electron" modified="2023-08-29T14:49:39.521Z" agent="Mozilla/5.0 (Macintosh; Intel Mac OS X 10_15_7) AppleWebKit/537.36 (KHTML, like Gecko) draw.io/21.6.8 Chrome/114.0.5735.289 Electron/25.5.0 Safari/537.36" etag="QXQ6mDb_TscvB2lQ8agX" version="21.6.8" type="device">
  <diagram id="PYxEMEsjO_8HddKv5NNp" name="Page-1">
    <mxGraphModel dx="1578" dy="1143" grid="1" gridSize="10" guides="1" tooltips="1" connect="1" arrows="1" fold="1" page="1" pageScale="1" pageWidth="827" pageHeight="1169" math="0" shadow="0">
      <root>
        <mxCell id="0" />
        <mxCell id="1" parent="0" />
        <mxCell id="2" value="&lt;b style=&quot;&quot;&gt;&lt;font style=&quot;font-size: 14px;&quot;&gt;Base Dataset&lt;/font&gt;&lt;/b&gt;" style="rounded=1;whiteSpace=wrap;html=1;labelPosition=center;verticalLabelPosition=top;align=center;verticalAlign=bottom;fontSize=15;fillColor=#fff2cc;strokeColor=#d6b656;fillStyle=solid;" parent="1" vertex="1">
          <mxGeometry x="34" y="40" width="260" height="230" as="geometry" />
        </mxCell>
        <mxCell id="58" style="edgeStyle=none;html=1;entryX=0;entryY=0;entryDx=0;entryDy=0;exitX=1;exitY=0.5;exitDx=0;exitDy=0;dashed=1;" parent="1" source="7" target="21" edge="1">
          <mxGeometry relative="1" as="geometry" />
        </mxCell>
        <mxCell id="7" value="Publication Date" style="rounded=1;whiteSpace=wrap;html=1;glass=0;shadow=0;" parent="1" vertex="1">
          <mxGeometry x="64" y="60" width="200" height="30" as="geometry" />
        </mxCell>
        <mxCell id="59" style="edgeStyle=none;html=1;entryX=0;entryY=0.25;entryDx=0;entryDy=0;exitX=1;exitY=0.5;exitDx=0;exitDy=0;dashed=1;" parent="1" source="8" target="21" edge="1">
          <mxGeometry relative="1" as="geometry" />
        </mxCell>
        <mxCell id="8" value="Paper Citation Count" style="rounded=1;whiteSpace=wrap;html=1;glass=0;shadow=0;" parent="1" vertex="1">
          <mxGeometry x="64" y="100" width="200" height="30" as="geometry" />
        </mxCell>
        <mxCell id="60" style="edgeStyle=none;html=1;entryX=0;entryY=0.5;entryDx=0;entryDy=0;exitX=1;exitY=0.5;exitDx=0;exitDy=0;dashed=1;" parent="1" source="9" target="21" edge="1">
          <mxGeometry relative="1" as="geometry" />
        </mxCell>
        <mxCell id="9" value="Author Citation Count" style="rounded=1;whiteSpace=wrap;html=1;glass=0;shadow=0;" parent="1" vertex="1">
          <mxGeometry x="64" y="140" width="200" height="30" as="geometry" />
        </mxCell>
        <mxCell id="64" style="edgeStyle=none;html=1;entryX=0.5;entryY=0;entryDx=0;entryDy=0;exitX=0.5;exitY=1;exitDx=0;exitDy=0;dashed=1;" parent="1" source="21" target="50" edge="1">
          <mxGeometry relative="1" as="geometry" />
        </mxCell>
        <mxCell id="21" value="&lt;b&gt;&lt;font style=&quot;font-size: 14px;&quot;&gt;Citation Recommender&lt;/font&gt;&lt;/b&gt;" style="rounded=1;whiteSpace=wrap;html=1;" parent="1" vertex="1">
          <mxGeometry x="597" y="100" width="203" height="50" as="geometry" />
        </mxCell>
        <mxCell id="39" value="&lt;b&gt;Candidate Embeddings&lt;br&gt;&lt;/b&gt;" style="rounded=1;whiteSpace=wrap;html=1;labelPosition=center;verticalLabelPosition=bottom;align=center;verticalAlign=top;fillColor=#ffe6cc;strokeColor=#d79b00;" parent="1" vertex="1">
          <mxGeometry x="410" y="450" width="120" height="350" as="geometry" />
        </mxCell>
        <mxCell id="40" value="TF-IDF" style="rounded=0;whiteSpace=wrap;html=1;" parent="1" vertex="1">
          <mxGeometry x="430" y="470" width="80" height="30" as="geometry" />
        </mxCell>
        <mxCell id="41" value="BM25" style="rounded=0;whiteSpace=wrap;html=1;" parent="1" vertex="1">
          <mxGeometry x="430" y="510" width="80" height="30" as="geometry" />
        </mxCell>
        <mxCell id="42" value="Word2Vec" style="rounded=0;whiteSpace=wrap;html=1;" parent="1" vertex="1">
          <mxGeometry x="430" y="550" width="80" height="30" as="geometry" />
        </mxCell>
        <mxCell id="KtPnvM5rNjickgl5RZU5-95" style="rounded=0;orthogonalLoop=1;jettySize=auto;html=1;entryX=0;entryY=1;entryDx=0;entryDy=0;exitX=1;exitY=0.5;exitDx=0;exitDy=0;dashed=1;" edge="1" parent="1" source="43" target="70">
          <mxGeometry relative="1" as="geometry" />
        </mxCell>
        <mxCell id="43" value="GloVe" style="rounded=0;whiteSpace=wrap;html=1;fillColor=#d5e8d4;strokeColor=#82b366;" parent="1" vertex="1">
          <mxGeometry x="430" y="590" width="80" height="30" as="geometry" />
        </mxCell>
        <mxCell id="44" value="FastText" style="rounded=0;whiteSpace=wrap;html=1;" parent="1" vertex="1">
          <mxGeometry x="430" y="630" width="80" height="30" as="geometry" />
        </mxCell>
        <mxCell id="45" value="BERT" style="rounded=0;whiteSpace=wrap;html=1;" parent="1" vertex="1">
          <mxGeometry x="430" y="670" width="80" height="30" as="geometry" />
        </mxCell>
        <mxCell id="46" value="SciBERT" style="rounded=0;whiteSpace=wrap;html=1;" parent="1" vertex="1">
          <mxGeometry x="430" y="710" width="80" height="30" as="geometry" />
        </mxCell>
        <mxCell id="47" value="Longformer" style="rounded=0;whiteSpace=wrap;html=1;" parent="1" vertex="1">
          <mxGeometry x="430" y="750" width="80" height="30" as="geometry" />
        </mxCell>
        <mxCell id="63" style="edgeStyle=none;html=1;entryX=0.5;entryY=1;entryDx=0;entryDy=0;exitX=0.5;exitY=0;exitDx=0;exitDy=0;dashed=1;" parent="1" source="48" target="50" edge="1">
          <mxGeometry relative="1" as="geometry" />
        </mxCell>
        <mxCell id="48" value="&lt;b&gt;&lt;font style=&quot;font-size: 14px;&quot;&gt;Language Recommender&lt;/font&gt;&lt;/b&gt;" style="rounded=1;whiteSpace=wrap;html=1;" parent="1" vertex="1">
          <mxGeometry x="597" y="420" width="203" height="50" as="geometry" />
        </mxCell>
        <mxCell id="50" value="&lt;b&gt;&lt;font style=&quot;font-size: 14px;&quot;&gt;Hybrid Recommender&lt;/font&gt;&lt;/b&gt;" style="rounded=1;whiteSpace=wrap;html=1;" parent="1" vertex="1">
          <mxGeometry x="597" y="260" width="203" height="50" as="geometry" />
        </mxCell>
        <mxCell id="KtPnvM5rNjickgl5RZU5-101" style="edgeStyle=orthogonalEdgeStyle;rounded=0;orthogonalLoop=1;jettySize=auto;html=1;dashed=1;" edge="1" parent="1" source="65" target="80">
          <mxGeometry relative="1" as="geometry" />
        </mxCell>
        <mxCell id="65" value="Citations" style="rounded=1;whiteSpace=wrap;html=1;glass=0;shadow=0;" parent="1" vertex="1">
          <mxGeometry x="64" y="180" width="200" height="30" as="geometry" />
        </mxCell>
        <mxCell id="KtPnvM5rNjickgl5RZU5-100" style="edgeStyle=orthogonalEdgeStyle;rounded=0;orthogonalLoop=1;jettySize=auto;html=1;entryX=0;entryY=0.5;entryDx=0;entryDy=0;dashed=1;" edge="1" parent="1" source="66" target="81">
          <mxGeometry relative="1" as="geometry" />
        </mxCell>
        <mxCell id="66" value="References" style="rounded=1;whiteSpace=wrap;html=1;glass=0;shadow=0;" parent="1" vertex="1">
          <mxGeometry x="64" y="220" width="200" height="30" as="geometry" />
        </mxCell>
        <mxCell id="71" style="edgeStyle=none;html=1;entryX=0;entryY=0;entryDx=0;entryDy=0;exitX=1;exitY=0.5;exitDx=0;exitDy=0;dashed=1;" parent="1" source="68" target="70" edge="1">
          <mxGeometry relative="1" as="geometry">
            <mxPoint x="510" y="630" as="targetPoint" />
          </mxGeometry>
        </mxCell>
        <mxCell id="68" value="Query Embedding" style="rounded=1;whiteSpace=wrap;html=1;fillColor=#d5e8d4;strokeColor=#82b366;" parent="1" vertex="1">
          <mxGeometry x="410" y="394" width="120" height="40" as="geometry" />
        </mxCell>
        <mxCell id="KtPnvM5rNjickgl5RZU5-105" style="edgeStyle=orthogonalEdgeStyle;rounded=0;orthogonalLoop=1;jettySize=auto;html=1;entryX=0.5;entryY=1;entryDx=0;entryDy=0;exitX=1;exitY=0.5;exitDx=0;exitDy=0;dashed=1;" edge="1" parent="1" source="70" target="48">
          <mxGeometry relative="1" as="geometry">
            <Array as="points">
              <mxPoint x="699" y="525" />
              <mxPoint x="699" y="485" />
            </Array>
          </mxGeometry>
        </mxCell>
        <mxCell id="70" value="Cosine Similarities" style="rounded=1;whiteSpace=wrap;html=1;fillColor=#d5e8d4;strokeColor=#82b366;" parent="1" vertex="1">
          <mxGeometry x="570" y="505" width="120" height="40" as="geometry" />
        </mxCell>
        <mxCell id="73" value="&lt;b&gt;&lt;font style=&quot;font-size: 14px;&quot;&gt;Semanticscholar API&lt;/font&gt;&lt;/b&gt;" style="rounded=1;whiteSpace=wrap;html=1;fillColor=#dae8fc;strokeColor=#6c8ebf;labelPosition=center;verticalLabelPosition=top;align=center;verticalAlign=bottom;" parent="1" vertex="1">
          <mxGeometry x="39" y="300" width="250" height="150" as="geometry" />
        </mxCell>
        <mxCell id="83" style="edgeStyle=none;html=1;entryX=0;entryY=1;entryDx=0;entryDy=0;fontSize=14;exitX=1;exitY=0.5;exitDx=0;exitDy=0;dashed=1;" parent="1" source="74" target="80" edge="1">
          <mxGeometry relative="1" as="geometry" />
        </mxCell>
        <mxCell id="74" value="Query Citations" style="rounded=1;whiteSpace=wrap;html=1;glass=0;shadow=0;" parent="1" vertex="1">
          <mxGeometry x="63" y="319" width="200" height="30" as="geometry" />
        </mxCell>
        <mxCell id="85" style="edgeStyle=none;html=1;entryX=0;entryY=1;entryDx=0;entryDy=0;fontSize=14;exitX=1;exitY=0.5;exitDx=0;exitDy=0;dashed=1;" parent="1" source="75" target="81" edge="1">
          <mxGeometry relative="1" as="geometry" />
        </mxCell>
        <mxCell id="75" value="Query References" style="rounded=1;whiteSpace=wrap;html=1;glass=0;shadow=0;" parent="1" vertex="1">
          <mxGeometry x="63" y="359" width="200" height="30" as="geometry" />
        </mxCell>
        <mxCell id="KtPnvM5rNjickgl5RZU5-103" style="edgeStyle=orthogonalEdgeStyle;rounded=0;orthogonalLoop=1;jettySize=auto;html=1;dashed=1;" edge="1" parent="1" source="76" target="68">
          <mxGeometry relative="1" as="geometry" />
        </mxCell>
        <mxCell id="76" value="Query Abstract" style="rounded=1;whiteSpace=wrap;html=1;glass=0;shadow=0;" parent="1" vertex="1">
          <mxGeometry x="63" y="399" width="200" height="30" as="geometry" />
        </mxCell>
        <mxCell id="87" style="edgeStyle=none;html=1;entryX=0;entryY=0.75;entryDx=0;entryDy=0;fontSize=14;exitX=1;exitY=0.5;exitDx=0;exitDy=0;dashed=1;" parent="1" source="80" target="21" edge="1">
          <mxGeometry relative="1" as="geometry" />
        </mxCell>
        <mxCell id="80" value="Co-Citation Analysis" style="rounded=1;whiteSpace=wrap;html=1;glass=0;shadow=0;fillColor=#dae8fc;strokeColor=#6c8ebf;" parent="1" vertex="1">
          <mxGeometry x="360" y="180" width="150" height="30" as="geometry" />
        </mxCell>
        <mxCell id="88" style="edgeStyle=none;html=1;entryX=0;entryY=1;entryDx=0;entryDy=0;fontSize=14;exitX=1;exitY=0.5;exitDx=0;exitDy=0;dashed=1;" parent="1" source="81" target="21" edge="1">
          <mxGeometry relative="1" as="geometry" />
        </mxCell>
        <mxCell id="81" value="Bibliographic Coupling" style="rounded=1;whiteSpace=wrap;html=1;glass=0;shadow=0;fillColor=#dae8fc;strokeColor=#6c8ebf;" parent="1" vertex="1">
          <mxGeometry x="360" y="220" width="150" height="30" as="geometry" />
        </mxCell>
        <mxCell id="KtPnvM5rNjickgl5RZU5-88" value="&lt;b&gt;User Inputs&lt;/b&gt;" style="swimlane;fontStyle=0;childLayout=stackLayout;horizontal=1;startSize=30;fillColor=#f5f5f5;horizontalStack=0;resizeParent=1;resizeParentMax=0;resizeLast=0;collapsible=1;marginBottom=0;html=1;fontColor=#333333;strokeColor=#666666;" vertex="1" parent="1">
          <mxGeometry x="63" y="465" width="197" height="120" as="geometry" />
        </mxCell>
        <mxCell id="KtPnvM5rNjickgl5RZU5-89" value="Query Identifier" style="text;strokeColor=#666666;fillColor=#f5f5f5;align=center;verticalAlign=top;spacingLeft=4;spacingRight=4;overflow=hidden;rotatable=0;points=[[0,0.5],[1,0.5]];portConstraint=eastwest;whiteSpace=wrap;html=1;fontColor=#333333;" vertex="1" parent="KtPnvM5rNjickgl5RZU5-88">
          <mxGeometry y="30" width="197" height="30" as="geometry" />
        </mxCell>
        <mxCell id="KtPnvM5rNjickgl5RZU5-90" value="Feature Weights" style="text;strokeColor=#b85450;fillColor=#f8cecc;align=center;verticalAlign=top;spacingLeft=4;spacingRight=4;overflow=hidden;rotatable=0;points=[[0,0.5],[1,0.5]];portConstraint=eastwest;whiteSpace=wrap;html=1;" vertex="1" parent="KtPnvM5rNjickgl5RZU5-88">
          <mxGeometry y="60" width="197" height="30" as="geometry" />
        </mxCell>
        <mxCell id="KtPnvM5rNjickgl5RZU5-91" value="Language Model" style="text;strokeColor=#82b366;fillColor=#d5e8d4;align=center;verticalAlign=top;spacingLeft=4;spacingRight=4;overflow=hidden;rotatable=0;points=[[0,0.5],[1,0.5]];portConstraint=eastwest;whiteSpace=wrap;html=1;" vertex="1" parent="KtPnvM5rNjickgl5RZU5-88">
          <mxGeometry y="90" width="197" height="30" as="geometry" />
        </mxCell>
        <mxCell id="KtPnvM5rNjickgl5RZU5-96" style="rounded=0;orthogonalLoop=1;jettySize=auto;html=1;entryX=0;entryY=0.75;entryDx=0;entryDy=0;exitX=1;exitY=0.5;exitDx=0;exitDy=0;dashed=1;" edge="1" parent="1" source="KtPnvM5rNjickgl5RZU5-91" target="68">
          <mxGeometry relative="1" as="geometry" />
        </mxCell>
        <mxCell id="KtPnvM5rNjickgl5RZU5-97" style="rounded=0;orthogonalLoop=1;jettySize=auto;html=1;entryX=0;entryY=0.5;entryDx=0;entryDy=0;exitX=1;exitY=0.5;exitDx=0;exitDy=0;dashed=1;" edge="1" parent="1" source="KtPnvM5rNjickgl5RZU5-91" target="43">
          <mxGeometry relative="1" as="geometry" />
        </mxCell>
        <mxCell id="KtPnvM5rNjickgl5RZU5-98" style="rounded=0;orthogonalLoop=1;jettySize=auto;html=1;entryX=0.084;entryY=1.01;entryDx=0;entryDy=0;exitX=1;exitY=0.5;exitDx=0;exitDy=0;entryPerimeter=0;dashed=1;" edge="1" parent="1" source="KtPnvM5rNjickgl5RZU5-90" target="21">
          <mxGeometry relative="1" as="geometry" />
        </mxCell>
      </root>
    </mxGraphModel>
  </diagram>
</mxfile>
